<svg width="299" height="58" viewBox="0 0 299 58" fill="none" xmlns="http://www.w3.org/2000/svg"><g filter="url(#a)"><path d="M6 2h264c12.703 0 23 10.297 23 23s-10.297 23-23 23H30C16.745 48 6 37.255 6 24V2Z" fill="#A90F90"/></g><path d="M4 2h268c12.703 0 23 10.297 23 23s-10.297 23-23 23H28C14.745 48 4 37.255 4 24V2Z" fill="#A90F90"/><path d="M4 2h268c12.703 0 23 10.297 23 23s-10.297 23-23 23H28C14.745 48 4 37.255 4 24V2Z" fill="url(#b)"/><path d="M16.448 28.496c.944 1.008 2.368 1.696 4.336 1.696 2.88 0 4.128-1.52 4.128-3.296 0-2.32-2.096-2.864-3.856-3.312-1.264-.32-2.352-.592-2.352-1.424 0-.8.704-1.328 1.808-1.328 1.12 0 2.256.384 3.088 1.216l1.072-1.392c-.992-.96-2.336-1.488-4-1.488-2.336 0-3.888 1.36-3.888 3.12 0 2.256 2.048 2.768 3.792 3.2 1.296.336 2.432.624 2.432 1.584 0 .704-.608 1.456-2.144 1.456a4.603 4.603 0 0 1-3.376-1.472l-1.04 1.44ZM31.804 30h1.68v-7.728h-1.68v5.424c-.4.528-1.136 1.008-1.984 1.008-.944 0-1.552-.368-1.552-1.568v-4.864h-1.68v5.472c0 1.584.816 2.448 2.48 2.448a3.704 3.704 0 0 0 2.736-1.216V30Zm3.19-1.008c.8.784 2 1.2 3.312 1.2 2.08 0 3.216-1.04 3.216-2.4 0-1.824-1.648-2.208-2.992-2.496-.912-.208-1.68-.368-1.68-.928 0-.544.56-.944 1.44-.944.96 0 1.824.4 2.288.928l.704-1.184c-.704-.624-1.696-1.088-3.008-1.088-1.952 0-3.04 1.088-3.04 2.352 0 1.728 1.584 2.08 2.912 2.368.944.208 1.76.384 1.76 1.024 0 .608-.512 1.04-1.52 1.04s-2.08-.528-2.624-1.088l-.768 1.216Zm7.739-2.864c0 2.352 1.648 4.064 4 4.064 1.504 0 2.416-.64 2.96-1.376l-1.104-1.024c-.432.592-1.024.912-1.776.912-1.408 0-2.336-1.072-2.336-2.576s.928-2.56 2.336-2.56c.752 0 1.344.304 1.776.912l1.104-1.024c-.544-.736-1.456-1.376-2.96-1.376-2.352 0-4 1.712-4 4.048ZM51.166 30h1.68v-5.264c.336-.544 1.28-1.024 1.984-1.024.208 0 .384.016.528.048v-1.664c-1.008 0-1.936.576-2.512 1.312v-1.136h-1.68V30Zm6.379-8.672c.576 0 1.04-.464 1.04-1.04 0-.576-.464-1.04-1.04-1.04-.56 0-1.04.464-1.04 1.04 0 .576.48 1.04 1.04 1.04ZM56.713 30h1.68v-7.728h-1.68V30Zm3.86 0h1.68v-1.056c.591.768 1.471 1.248 2.48 1.248 1.967 0 3.423-1.504 3.423-4.048 0-2.496-1.44-4.064-3.424-4.064-.976 0-1.872.448-2.48 1.264v-4.016h-1.68V30Zm1.68-2.32v-3.056c.367-.576 1.2-1.056 1.983-1.056 1.344 0 2.192 1.072 2.192 2.576s-.848 2.56-2.192 2.56c-.784 0-1.616-.448-1.984-1.024Zm8.448-6.352c.576 0 1.04-.464 1.04-1.04 0-.576-.464-1.04-1.04-1.04-.56 0-1.04.464-1.04 1.04 0 .576.48 1.04 1.04 1.04ZM69.87 30h1.68v-7.728h-1.68V30Zm6.18.192c.784 0 1.28-.208 1.584-.496l-.4-1.264c-.128.144-.432.272-.752.272-.48 0-.736-.384-.736-.912v-4.048h1.568v-1.472h-1.568V20.16h-1.68v2.112h-1.28v1.472h1.28v4.464c0 1.28.688 1.984 1.984 1.984Zm2.309-4.064c0 2.448 1.728 4.064 4.048 4.064 1.232 0 2.368-.384 3.136-1.12l-.768-1.104c-.544.544-1.44.848-2.192.848-1.456 0-2.336-.96-2.464-2.128h5.968v-.4c0-2.432-1.488-4.208-3.808-4.208-2.288 0-3.92 1.808-3.92 4.048Zm3.92-2.672c1.52 0 2.144 1.136 2.176 2.048h-4.352c.08-.944.736-2.048 2.176-2.048ZM96.574 30h1.68v-5.12c0-2.08-1.504-2.8-3.216-2.8-1.232 0-2.352.4-3.248 1.248l.688 1.168c.672-.656 1.424-.976 2.288-.976 1.072 0 1.808.544 1.808 1.44v1.152c-.56-.656-1.456-.992-2.496-.992-1.264 0-2.688.736-2.688 2.512 0 1.712 1.424 2.56 2.688 2.56 1.024 0 1.92-.368 2.496-1.024V30Zm0-1.76c-.384.528-1.104.8-1.84.8-.944 0-1.648-.544-1.648-1.376 0-.848.704-1.392 1.648-1.392.736 0 1.456.272 1.84.8v1.168Zm3.858 1.76h1.68V19.328h-1.68V30Zm13.185 0h1.68v-5.44c0-1.584-.832-2.48-2.496-2.48-1.216 0-2.208.64-2.72 1.248v-1.056h-1.68V30h1.68v-5.392c.384-.528 1.12-1.04 1.984-1.04.944 0 1.552.4 1.552 1.6V30Zm4.694-8.672c.576 0 1.04-.464 1.04-1.04 0-.576-.464-1.04-1.04-1.04-.56 0-1.04.464-1.04 1.04 0 .576.48 1.04 1.04 1.04ZM117.479 30h1.68v-7.728h-1.68V30Zm5.891 0h1.808l3.152-7.728h-1.808l-2.256 5.792-2.256-5.792h-1.792L123.37 30Zm5.535-3.872c0 2.448 1.728 4.064 4.048 4.064 1.232 0 2.368-.384 3.136-1.12l-.768-1.104c-.544.544-1.44.848-2.192.848-1.456 0-2.336-.96-2.464-2.128h5.968v-.4c0-2.432-1.488-4.208-3.808-4.208-2.288 0-3.92 1.808-3.92 4.048Zm3.92-2.672c1.52 0 2.144 1.136 2.176 2.048h-4.352c.08-.944.736-2.048 2.176-2.048ZM138.291 30h1.68V19.328h-1.68V30Zm7.537-5.312c0 2.96 1.264 5.504 4.4 5.504 2.384 0 3.936-1.6 3.936-3.584 0-2.272-1.648-3.44-3.568-3.44-1.264 0-2.384.768-2.864 1.488-.016-.096-.016-.192-.016-.304 0-1.872 1.04-3.52 2.816-3.52 1.024 0 1.632.352 2.192.944l.88-1.424c-.72-.704-1.744-1.184-3.072-1.184-3.088 0-4.704 2.432-4.704 5.52Zm6.448 1.984c0 .864-.736 1.856-2.144 1.856-1.648 0-2.272-1.344-2.384-2.496.544-.768 1.424-1.264 2.336-1.264 1.168 0 2.192.592 2.192 1.904Z" fill="#fff"/><mask id="c" style="mask-type:alpha" maskUnits="userSpaceOnUse" x="258" y="23" width="11" height="11"><path d="M262.146 26.964a.098.098 0 0 1-.098.07h-4l3.239 2.358a.098.098 0 0 0 .113 0c.896-.557 1.679-.944 3.345-1.38 0 0-2.556 1.913-4.229 4.058a.492.492 0 0 0-.083.157l-.349 1.073 3.232-2.347a.097.097 0 0 1 .119 0l3.234 2.349-1.235-3.805a.104.104 0 0 1-.001-.063.103.103 0 0 1 .037-.05l3.235-2.35h-4a.096.096 0 0 1-.061-.018.096.096 0 0 1-.037-.052l-1.235-3.804-1.226 3.804Z" fill="#000"/></mask><g mask="url(#c)"><path d="M263.378 17.834 252.981 28.23l10.397 10.397 10.397-10.397-10.397-10.396Z" fill="#fff"/></g><path d="M283 27.836h-2.52v-2.52h-1.338v2.52h-2.52v1.299h2.52v2.52h1.338v-2.52H283v-1.299Zm-10.886-1.786c.652 0 1.073.34 1.073.901 0 .585-.419 1.006-1.073 1.006h-1.045V26.05h1.045Zm.823 3.24a2.362 2.362 0 0 0 2.049-2.342c0-1.593-1.085-2.468-2.835-2.468h-2.861v8.02h1.777v-3.171l2.128 3.173h2.065l-2.323-3.212Zm-14.235-4.807h-5.29v1.62h1.738v6.4h1.815v-6.4h1.737v-1.62Zm-8.632 2.938c-.509-.235-.704-.482-.704-.81 0-.378.326-.691.81-.682.444.012.77.248 1.018.81l1.528-.664c-.417-1.073-1.268-1.697-2.634-1.697-1.45 0-2.521.953-2.521 2.233 0 .878.418 1.594 1.489 2.128l1.073.536c.601.3.888.523.888.967 0 .47-.39.81-.888.81-.536 0-1.019-.3-1.241-.976l-1.62.47c.366 1.32 1.45 2.09 2.861 2.09 1.528 0 2.703-.976 2.703-2.39 0-1.084-.574-1.816-1.736-2.351l-1.026-.474Zm-21.186.299c-.586.133-2.126.21-2.126.21l-.195.604s.768-.064 1.329-.008c0 0 .183-.02.203.206.004.145-.002.29-.016.435 0 0-.012.137-.207.169-.212.036-1.658.089-1.658.089l-.236.785s-.085.181.11.13c.182-.05 1.698-.331 1.897-.291.212.052.447.33.378.588-.081.314-1.593 1.273-2.515 1.205 0 0-.484.032-.894-.617-.382-.616.146-1.788.146-1.788s-.24-.548-.065-.73c0 0 .106-.092.406-.116l.37-.762s-.422.029-.674-.278c-.236-.294-.252-.427-.074-.507.191-.093 1.951-.411 3.162-.37 0 0 .423-.041.785.684-.005 0 .174.294-.126.363Zm-4.556 2.925c-.155.363-.565.75-1.073.508s-1.305-1.865-1.305-1.865-.304-.605-.361-.593c0 0-.065-.116-.106.544-.041.661.008 1.946-.256 2.148-.252.2-.557.12-.715-.117-.142-.234-.203-.79-.126-1.765.093-.975.321-2.014.614-2.34.292-.327.528-.09.617-.005 0 0 .39.351 1.037 1.382l.113.19s.586.975.647.97c0 0 .048.045.089.013.061-.017.036-.33.036-.33s-.121-1.06-.654-2.857c0 0-.081-.226-.024-.435.057-.21.268-.113.268-.113s.829.411 1.227 1.749c.395 1.35.126 2.554-.028 2.916Zm-4.072-3.436c-.069.137-.11.334-.459.387 0 0-3.345.225-3.504.459 0 0-.117.137.066.177.182.04.938.137 1.304.157.39.004 1.707.016 2.178.6 0 0 .281.278.269.907-.013.645-.126.87-.378 1.104-.265.217-2.532 1.224-3.995-.323 0 0-.675-.745.231-1.309 0 0 .655-.39 2.317.069 0 0 .504.181.479.362-.028.194-.414.4-.975.387-.545-.016-.943-.274-.866-.234.074.028-.585-.314-.788-.08-.203.213-.154.346.045.48.508.285 2.471.184 3.056-.46 0 0 .231-.262-.122-.476-.354-.2-1.366-.322-1.76-.342-.378-.02-1.784.004-1.987-.367 0 0-.203-.25.02-.958.236-.742 1.874-1.028 2.581-1.092 0 0 1.946-.069 2.304.326a.304.304 0 0 1-.016.226Zm-5.527 4.347c-.236.173-.736.096-.878-.097-.142-.173-.191-.862-.162-1.942.028-1.091.052-2.445.288-2.659.252-.217.406-.028.504.121.106.145.232.306.26.649.029.342.106 2.139.106 2.139s.105 1.62-.118 1.789Zm.508-5.793c-.687.225-1.158.149-1.557-.02-.174.302-.276.394-.41.414-.195.02-.37-.29-.402-.39-.033-.077-.126-.206-.013-.512-.39-.346-.418-.814-.353-1.128.097-.363.756-1.74 2.759-1.901 0 0 .98-.073 1.146.447h.029s.951.004.93.842c-.012.842-1.056 1.89-2.129 2.248Zm-1.87-1.866c-.203.323-.211.516-.117.649.231-.35.654-.902 1.276-1.321-.48.04-.882.245-1.159.672Zm2.768-.54c-.63.093-1.605.931-2.069 1.616.712.129 1.967.08 2.524-1.043-.004 0 .264-.697-.455-.572Zm17.101 6.49c-.378.653-1.439 2.015-2.853 1.697-.467 1.124-.857 2.256-1.081 3.956 0 0-.049.33-.325.213-.272-.096-.727-.548-.817-1.172-.097-.822.272-2.212 1.024-3.803-.219-.355-.37-.862-.239-1.583 0 0 .191-1.338 1.544-2.546 0 0 .162-.141.256-.097.106.044.057.48-.029.689-.085.21-.69 1.249-.69 1.249s-.378.7-.273 1.253c.711-1.084 2.329-3.272 3.333-2.583.337.238.491.758.491 1.318-.004.495-.121 1.019-.341 1.41Zm-.293-1.716s-.056-.43-.479.045c-.366.399-1.024 1.152-1.557 2.171.557-.06 1.094-.362 1.256-.516.264-.233.878-.862.78-1.7Zm-19.73.548c-.077.975-.455 2.615-3.133 3.425-1.768.527-3.438.273-4.349.044-.02.358-.061.511-.118.572-.077.077-.654.407-.971-.06-.142-.222-.215-.625-.256-.983-2.048-.935-2.991-2.28-3.027-2.341-.045-.044-.513-.528-.045-1.12.439-.536 1.873-1.072 3.166-1.29.044-1.095.174-1.92.329-2.3.187-.439.422-.044.626.254.17.222.272 1.177.28 1.938.845-.04 1.345.02 2.288.19 1.227.221 2.048.841 1.975 1.546-.053.693-.695.98-.939 1-.256.02-.654-.162-.654-.162-.272-.129-.02-.241.309-.382.358-.174.276-.35.276-.35-.134-.388-1.727-.657-3.312-.657-.008.866.037 2.304.057 3.142 1.11.21 1.939.169 1.939.169s4.047-.113 4.169-2.675c.122-2.562-4.035-5.028-7.112-5.81-3.072-.797-4.811-.24-4.962-.164-.162.08-.012.104-.012.104.155.028.307.069.455.121.305.097.069.254.069.254-.524.165-1.113.06-1.227-.177-.114-.238.077-.451.297-.758.219-.322.459-.31.459-.31 3.8-1.305 8.428 1.056 8.428 1.056 4.337 2.18 5.076 4.733 4.995 5.724Zm-11.468-.133c-.431.21-.135.512-.135.512.809.862 1.805 1.402 2.752 1.736.109-1.486.093-2.01.105-2.76-1.479.101-2.332.335-2.722.512Zm39.538-.306v.532a.21.21 0 0 1-.212.21h-2.556c0 .132.004.25.004.358.004.717-.033 1.434-.11 2.147a.211.211 0 0 1-.207.19h-.553a.203.203 0 0 1-.08-.017.204.204 0 0 1-.066-.048.183.183 0 0 1-.041-.071.19.19 0 0 1-.008-.082c.078-.704.116-1.411.114-2.119 0-.113 0-.23-.004-.358h-2.528a.212.212 0 0 1-.15-.061.208.208 0 0 1-.061-.149v-.532a.208.208 0 0 1 .211-.21h2.491a18.34 18.34 0 0 0-.329-2.545.18.18 0 0 1 .096-.192.176.176 0 0 1 .075-.018h.597a.196.196 0 0 1 .191.157c.165.859.273 1.727.326 2.599h2.588a.214.214 0 0 1 .212.21Z" fill="#fff"/><path d="M237.804 24.022a17.704 17.704 0 0 0-5.833-7.494 17.977 17.977 0 0 0-18.309-1.834 17.802 17.802 0 0 0-7.228 6.186.213.213 0 0 0-.024.181.197.197 0 0 0 .13.13l.463.156a.268.268 0 0 0 .297-.1 16.837 16.837 0 0 1 6.067-5.393 17.01 17.01 0 0 1 7.909-1.947c3.322 0 6.57.97 9.338 2.79a16.799 16.799 0 0 1 6.231 7.438.244.244 0 0 0 .223.149h.553a.182.182 0 0 0 .09-.022.185.185 0 0 0 .069-.063.178.178 0 0 0 .024-.177Zm-.849.19a.159.159 0 0 0 .036.02c-.012-.008-.024-.012-.036-.02Z" fill="url(#d)"/><defs><radialGradient id="d" cx="0" cy="0" r="1" gradientUnits="userSpaceOnUse" gradientTransform="matrix(30.8908 0 0 30.6221 237.285 24.264)"><stop offset=".01" stop-color="#fff"/><stop offset=".22" stop-color="#fff"/><stop offset="1" stop-color="#fff" stop-opacity="0"/></radialGradient><linearGradient id="b" x1="295" y1="25" x2="44" y2="25" gradientUnits="userSpaceOnUse"><stop stop-color="#0C1A51"/><stop offset="1" stop-color="#0C1A51" stop-opacity="0"/></linearGradient><filter id="a" x="0" y="0" width="299" height="58" filterUnits="userSpaceOnUse" color-interpolation-filters="sRGB"><feFlood flood-opacity="0" result="BackgroundImageFix"/><feColorMatrix in="SourceAlpha" values="0 0 0 0 0 0 0 0 0 0 0 0 0 0 0 0 0 0 127 0" result="hardAlpha"/><feOffset dy="4"/><feGaussianBlur stdDeviation="3"/><feColorMatrix values="0 0 0 0 0 0 0 0 0 0 0 0 0 0 0 0 0 0 0.15 0"/><feBlend in2="BackgroundImageFix" result="effect1_dropShadow_506_4672"/><feBlend in="SourceGraphic" in2="effect1_dropShadow_506_4672" result="shape"/></filter></defs></svg>